<svg width="800" height="600" viewBox="0 0 800 600" fill="none" xmlns="http://www.w3.org/2000/svg">
<g clip-path="url(#clip0_1_46)">
<rect width="800" height="600" fill="white"/>
<rect width="200" height="200" fill="#48E2E4"/>
<rect x="400" y="200" width="200" height="200" fill="#48E2E4"/>
<rect x="600" y="200" width="200" height="200" fill="#236CF6"/>
<rect x="200" width="200" height="200" fill="#2C296C"/>
<rect x="400" width="200" height="200" fill="#236CF6"/>
<rect x="600" width="200" height="200" fill="#48E2E4"/>
<rect y="400" width="200" height="200" fill="#48E2E4"/>
<rect x="400" y="400" width="200" height="200" fill="#2C296C"/>
<rect x="200" y="400" width="200" height="200" fill="#236CF6"/>
<rect x="600" y="400" width="200" height="200" fill="#236CF6"/>
<circle cx="100.278" cy="500.278" r="50" transform="rotate(-38.6598 100.278 500.278)" fill="white"/>
<path d="M69.0434 461.235C58.6885 469.519 52.0484 481.577 50.584 494.757C49.1196 507.936 52.9508 521.158 61.2347 531.513C69.5187 541.868 81.5769 548.508 94.7566 549.972C107.936 551.437 121.158 547.606 131.513 539.322L100.278 500.278L69.0434 461.235Z" fill="#236CF6"/>
<circle cx="300" r="50" fill="#1CB0F6"/>
<circle cx="300" cy="121" r="50" fill="#48E2E4"/>
<circle cx="100" cy="500" r="29" fill="#48E2E4"/>
<circle cx="466" cy="335" r="29" fill="white"/>
<circle cx="534" cy="264" r="29" fill="#1CB0F6"/>
<circle cx="466" cy="264" r="29" fill="#1CB0F6"/>
<circle cx="534" cy="335" r="29" fill="#1CB0F6"/>
<rect x="420" y="136.673" width="165" height="60" transform="rotate(-45 420 136.673)" fill="#48E2E4"/>
<rect width="100" height="100" fill="#236CF6"/>
<rect x="100" y="100" width="100" height="100" fill="#236CF6"/>
<rect y="200" width="200" height="200" fill="#236CF6"/>
<rect x="25" y="229" width="150" height="32" fill="#48E2E4"/>
<rect x="25" y="284" width="150" height="32" fill="#48E2E4"/>
<rect x="25" y="339" width="150" height="32" fill="#48E2E4"/>
<rect x="200" y="200" width="200" height="200" fill="#48E2E4"/>
<path d="M258 250.5L399.75 198.105V302.895L258 250.5Z" fill="#236CF6"/>
<path d="M258 348.5L399.75 296.105V400.895L258 348.5Z" fill="#236CF6"/>
<rect x="628" y="298.389" width="100" height="100" transform="rotate(-43.9386 628 298.389)" fill="#48E2E4"/>
<rect x="466" y="467" width="65" height="65" fill="#48E2E4"/>
<path d="M600 525.5L799.5 483.498L799.5 567.502L600 525.5Z" fill="#48E2E4"/>
<path d="M800 483.5L600.5 525.502L600.5 441.498L800 483.5Z" fill="#48E2E4"/>
<path d="M367 439.5C367 456.606 359.888 473.012 347.23 485.108C334.571 497.204 317.402 504 299.5 504C281.598 504 264.429 497.204 251.77 485.108C239.112 473.012 232 456.606 232 439.5L299.5 439.5H367Z" fill="#48E2E4"/>
<path d="M367 514.5C367 531.606 359.888 548.012 347.23 560.108C334.571 572.204 317.402 579 299.5 579C281.598 579 264.429 572.204 251.77 560.108C239.112 548.012 232 531.606 232 514.5L299.5 514.5H367Z" fill="#48E2E4"/>
<circle cx="700.278" cy="100.278" r="50" transform="rotate(-38.6598 700.278 100.278)" fill="white"/>
<path d="M669.043 61.2347C658.688 69.5187 652.048 81.5769 650.584 94.7566C649.12 107.936 652.951 121.158 661.235 131.513C669.519 141.868 681.577 148.508 694.757 149.972C707.936 151.437 721.158 147.606 731.513 139.322L700.278 100.278L669.043 61.2347Z" fill="#236CF6"/>
</g>
<defs>
<clipPath id="clip0_1_46">
<rect width="800" height="600" fill="white"/>
</clipPath>
</defs>
</svg>
