<svg width="529" height="422" viewBox="0 0 529 422" fill="none" xmlns="http://www.w3.org/2000/svg">
<path d="M351.85 6.85001C316.91 6.85001 288.59 35.17 288.59 70.11C288.59 105.05 316.91 133.37 351.85 133.37C386.79 133.37 415.11 105.05 415.11 70.11C415.11 35.17 386.79 6.85001 351.85 6.85001ZM351.85 108.53C330.63 108.53 313.43 91.33 313.43 70.11C313.43 48.89 330.63 31.69 351.85 31.69C373.07 31.69 390.27 48.89 390.27 70.11C390.27 91.33 373.07 108.53 351.85 108.53Z" fill="#FFC200"/>
<path d="M372.33 406.84C330.69 406.84 291.54 390.62 262.09 361.18L263.5 359.77C323.51 419.78 421.14 419.78 481.15 359.77C510.22 330.7 526.23 292.05 526.23 250.95C526.23 209.85 510.22 171.19 481.15 142.13L482.56 140.72C512.01 170.17 528.22 209.32 528.22 250.96C528.22 292.6 512 331.75 482.56 361.2C453.12 390.63 413.97 406.84 372.33 406.84Z" fill="#0B315E"/>
<path d="M372.33 396.05C335.15 396.05 297.98 381.9 269.68 353.6L271.09 352.19C326.91 408.01 417.74 408.01 473.57 352.19C529.39 296.37 529.39 205.53 473.57 149.71L474.98 148.3C531.58 204.9 531.58 297 474.98 353.61C446.68 381.9 409.5 396.05 372.33 396.05Z" fill="#0B315E"/>
<path d="M372.33 385.39C336.42 385.39 302.66 371.4 277.26 346.01L278.67 344.6C303.69 369.62 336.95 383.39 372.32 383.39C407.7 383.39 440.96 369.61 465.97 344.6C490.99 319.58 504.76 286.32 504.76 250.95C504.76 215.57 490.98 182.31 465.97 157.3L467.38 155.89C492.77 181.28 506.76 215.05 506.76 250.96C506.76 286.87 492.77 320.63 467.38 346.03C442 371.4 408.24 385.39 372.33 385.39Z" fill="#0B315E"/>
<path d="M372.33 374.6C340.65 374.6 308.97 362.54 284.85 338.42L286.26 337.01C333.72 384.47 410.94 384.47 458.4 337.01C505.86 289.55 505.86 212.33 458.4 164.87L459.81 163.46C508.05 211.7 508.05 290.19 459.81 338.42C435.69 362.54 404.01 374.6 372.33 374.6Z" fill="#0B315E"/>
<path d="M372.33 363.88C343.4 363.88 314.46 352.87 292.43 330.84L293.84 329.43C337.12 372.71 407.53 372.71 450.8 329.43C494.08 286.15 494.08 215.74 450.8 172.47L452.21 171.06C496.26 215.11 496.26 286.8 452.21 330.85C430.2 352.87 401.26 363.88 372.33 363.88Z" fill="#0B315E"/>
<path d="M372.33 353.16C346.14 353.16 319.95 343.19 300.02 323.26L301.43 321.85C340.52 360.94 404.13 360.94 443.22 321.85C462.16 302.91 472.59 277.73 472.59 250.95C472.59 224.17 462.16 198.99 443.22 180.05L444.63 178.64C463.95 197.95 474.58 223.64 474.58 250.95C474.58 278.26 463.94 303.95 444.63 323.26C424.7 343.19 398.52 353.16 372.33 353.16Z" fill="#0B315E"/>
<path d="M372.33 342.44C348.89 342.44 325.45 333.52 307.6 315.67L309.01 314.26C343.92 349.17 400.72 349.17 435.63 314.26C470.54 279.35 470.54 222.55 435.63 187.64L437.04 186.23C472.73 221.92 472.73 279.99 437.04 315.68C419.21 333.51 395.77 342.44 372.33 342.44Z" fill="#0B315E"/>
<path d="M434.53 133.55L428.76 139.31V133.55H434.53Z" fill="#0B315E"/>
<path d="M445.21 133.55L428.76 150V144.24L439.45 133.55H445.21Z" fill="#0B315E"/>
<path d="M477.19 133.55L428.76 181.97V176.3L471.51 133.55H477.19Z" fill="#0B315E"/>
<path d="M466.59 133.55L428.76 171.37V165.61L460.83 133.55H466.59Z" fill="#0B315E"/>
<path d="M455.9 133.55L428.76 160.69V154.92L450.14 133.55H455.9Z" fill="#0B315E"/>
<path d="M260.94 421.45C371.424 421.45 460.99 331.885 460.99 221.4C460.99 110.915 371.424 21.35 260.94 21.35C150.455 21.35 60.8899 110.915 60.8899 221.4C60.8899 331.885 150.455 421.45 260.94 421.45Z" fill="url(#paint0_radial_7_171)"/>
<path d="M215.15 391.78C323.171 391.78 410.74 304.211 410.74 196.19C410.74 88.1686 323.171 0.600006 215.15 0.600006C107.128 0.600006 19.5598 88.1686 19.5598 196.19C19.5598 304.211 107.128 391.78 215.15 391.78Z" fill="#F9F5EF"/>
<path d="M218.05 46.51C219.431 46.51 220.55 45.3907 220.55 44.01C220.55 42.6293 219.431 41.51 218.05 41.51C216.669 41.51 215.55 42.6293 215.55 44.01C215.55 45.3907 216.669 46.51 218.05 46.51Z" fill="#114A82"/>
<path d="M244.18 48.68C242.83 48.68 241.74 47.59 241.74 46.24C241.74 44.89 242.83 43.8 244.18 43.8C245.53 43.8 246.62 44.89 246.62 46.24C246.62 47.59 245.53 48.68 244.18 48.68Z" fill="#114A82"/>
<path d="M269.54 55.32C270.854 55.32 271.92 54.2544 271.92 52.94C271.92 51.6256 270.854 50.56 269.54 50.56C268.225 50.56 267.16 51.6256 267.16 52.94C267.16 54.2544 268.225 55.32 269.54 55.32Z" fill="#114A82"/>
<path d="M293.35 66.24C292.07 66.24 291.03 65.2 291.03 63.92C291.03 62.64 292.07 61.6 293.35 61.6C294.63 61.6 295.67 62.64 295.67 63.92C295.68 65.2 294.64 66.24 293.35 66.24Z" fill="#114A82"/>
<path d="M314.93 81.08C313.68 81.08 312.67 80.07 312.67 78.82C312.67 77.57 313.68 76.56 314.93 76.56C316.18 76.56 317.19 77.57 317.19 78.82C317.19 80.07 316.18 81.08 314.93 81.08Z" fill="#114A82"/>
<path d="M333.64 99.4C334.86 99.4 335.85 98.4105 335.85 97.19C335.85 95.9694 334.86 94.98 333.64 94.98C332.419 94.98 331.43 95.9694 331.43 97.19C331.43 98.4105 332.419 99.4 333.64 99.4Z" fill="#114A82"/>
<path d="M348.93 120.64C347.74 120.64 346.78 119.68 346.78 118.49C346.78 117.3 347.74 116.34 348.93 116.34C350.12 116.34 351.08 117.3 351.08 118.49C351.08 119.68 350.12 120.64 348.93 120.64Z" fill="#114A82"/>
<path d="M362.418 142.466C362.602 141.326 361.827 140.254 360.688 140.07C359.548 139.886 358.475 140.661 358.291 141.8C358.108 142.94 358.882 144.012 360.022 144.196C361.161 144.38 362.234 143.605 362.418 142.466Z" fill="#114A82"/>
<path d="M367.5 169.36C366.38 169.36 365.47 168.45 365.47 167.33C365.47 166.21 366.38 165.3 367.5 165.3C368.62 165.3 369.53 166.21 369.53 167.33C369.53 168.45 368.62 169.36 367.5 169.36Z" fill="#114A82"/>
<path d="M370.21 195.38C369.12 195.38 368.24 194.5 368.24 193.41C368.24 192.32 369.12 191.44 370.21 191.44C371.3 191.44 372.18 192.32 372.18 193.41C372.18 194.5 371.3 195.38 370.21 195.38Z" fill="#114A82"/>
<path d="M368.45 221.49C367.39 221.49 366.54 220.63 366.54 219.58C366.54 218.52 367.4 217.67 368.45 217.67C369.51 217.67 370.36 218.53 370.36 219.58C370.36 220.63 369.5 221.49 368.45 221.49Z" fill="#114A82"/>
<path d="M362.22 246.9C361.2 246.9 360.37 246.07 360.37 245.05C360.37 244.03 361.2 243.2 362.22 243.2C363.24 243.2 364.07 244.03 364.07 245.05C364.07 246.07 363.24 246.9 362.22 246.9Z" fill="#114A82"/>
<path d="M351.68 270.86C350.69 270.86 349.89 270.06 349.89 269.07C349.89 268.08 350.69 267.28 351.68 267.28C352.67 267.28 353.47 268.08 353.47 269.07C353.47 270.05 352.67 270.86 351.68 270.86Z" fill="#114A82"/>
<path d="M337.17 292.64C336.21 292.64 335.44 291.86 335.44 290.91C335.44 289.95 336.22 289.18 337.17 289.18C338.13 289.18 338.9 289.96 338.9 290.91C338.9 291.86 338.13 292.64 337.17 292.64Z" fill="#114A82"/>
<path d="M319.14 311.62C318.21 311.62 317.46 310.87 317.46 309.94C317.46 309.01 318.21 308.26 319.14 308.26C320.07 308.26 320.82 309.01 320.82 309.94C320.81 310.87 320.06 311.62 319.14 311.62Z" fill="#114A82"/>
<path d="M298.12 327.24C297.23 327.24 296.5 326.52 296.5 325.62C296.5 324.72 297.22 324 298.12 324C299.02 324 299.74 324.72 299.74 325.62C299.74 326.52 299.01 327.24 298.12 327.24Z" fill="#114A82"/>
<path d="M274.72 339.02C273.86 339.02 273.16 338.32 273.16 337.46C273.16 336.6 273.86 335.9 274.72 335.9C275.58 335.9 276.28 336.6 276.28 337.46C276.28 338.32 275.58 339.02 274.72 339.02Z" fill="#114A82"/>
<path d="M249.63 346.58C248.8 346.58 248.13 345.91 248.13 345.08C248.13 344.25 248.8 343.58 249.63 343.58C250.46 343.58 251.13 344.25 251.13 345.08C251.13 345.91 250.46 346.58 249.63 346.58Z" fill="#114A82"/>
<path d="M223.6 349.71C222.8 349.71 222.16 349.07 222.16 348.27C222.16 347.47 222.8 346.83 223.6 346.83C224.4 346.83 225.04 347.47 225.04 348.27C225.04 349.07 224.4 349.71 223.6 349.71Z" fill="#114A82"/>
<path d="M197.41 348.36C196.65 348.36 196.03 347.74 196.03 346.98C196.03 346.22 196.65 345.6 197.41 345.6C198.17 345.6 198.79 346.22 198.79 346.98C198.79 347.74 198.17 348.36 197.41 348.36Z" fill="#114A82"/>
<path d="M171.83 342.54C171.1 342.54 170.51 341.95 170.51 341.22C170.51 340.49 171.1 339.9 171.83 339.9C172.56 339.9 173.15 340.49 173.15 341.22C173.15 341.95 172.56 342.54 171.83 342.54Z" fill="#114A82"/>
<path d="M147.62 332.38C146.92 332.38 146.36 331.81 146.36 331.12C146.36 330.42 146.93 329.86 147.62 329.86C148.32 329.86 148.88 330.43 148.88 331.12C148.89 331.82 148.32 332.38 147.62 332.38Z" fill="#114A82"/>
<path d="M125.52 318.21C124.85 318.21 124.32 317.67 124.32 317.01C124.32 316.35 124.86 315.81 125.52 315.81C126.18 315.81 126.72 316.35 126.72 317.01C126.72 317.67 126.19 318.21 125.52 318.21Z" fill="#114A82"/>
<path d="M106.15 300.47C106.785 300.47 107.3 299.955 107.3 299.32C107.3 298.685 106.785 298.17 106.15 298.17C105.515 298.17 105 298.685 105 299.32C105 299.955 105.515 300.47 106.15 300.47Z" fill="#114A82"/>
<path d="M218.05 58.22C219.431 58.22 220.55 57.1007 220.55 55.72C220.55 54.3393 219.431 53.22 218.05 53.22C216.669 53.22 215.55 54.3393 215.55 55.72C215.55 57.1007 216.669 58.22 218.05 58.22Z" fill="#114A82"/>
<path d="M243.87 60.5001C242.54 60.5001 241.46 59.4201 241.46 58.0901C241.46 56.7601 242.54 55.6801 243.87 55.6801C245.2 55.6801 246.28 56.7601 246.28 58.0901C246.28 59.4201 245.2 60.5001 243.87 60.5001Z" fill="#114A82"/>
<path d="M268.81 67.48C270.086 67.48 271.12 66.4458 271.12 65.17C271.12 63.8943 270.086 62.86 268.81 62.86C267.534 62.86 266.5 63.8943 266.5 65.17C266.5 66.4458 267.534 67.48 268.81 67.48Z" fill="#114A82"/>
<path d="M292.01 78.96C290.79 78.96 289.79 77.97 289.79 76.74C289.79 75.52 290.78 74.52 292.01 74.52C293.23 74.52 294.23 75.51 294.23 76.74C294.22 77.97 293.23 78.96 292.01 78.96Z" fill="#114A82"/>
<path d="M312.68 94.5C311.51 94.5 310.56 93.55 310.56 92.38C310.56 91.21 311.51 90.26 312.68 90.26C313.85 90.26 314.8 91.21 314.8 92.38C314.8 93.55 313.86 94.5 312.68 94.5Z" fill="#114A82"/>
<path d="M330.15 113.56C329.03 113.56 328.12 112.65 328.12 111.53C328.12 110.41 329.03 109.5 330.15 109.5C331.27 109.5 332.18 110.41 332.18 111.53C332.18 112.65 331.27 113.56 330.15 113.56Z" fill="#114A82"/>
<path d="M343.82 135.5C342.75 135.5 341.89 134.63 341.89 133.57C341.89 132.5 342.76 131.64 343.82 131.64C344.88 131.64 345.75 132.51 345.75 133.57C345.75 134.63 344.89 135.5 343.82 135.5Z" fill="#114A82"/>
<path d="M353.19 159.57C354.206 159.57 355.03 158.746 355.03 157.73C355.03 156.714 354.206 155.89 353.19 155.89C352.174 155.89 351.35 156.714 351.35 157.73C351.35 158.746 352.174 159.57 353.19 159.57Z" fill="#114A82"/>
<path d="M357.93 184.97C356.97 184.97 356.19 184.19 356.19 183.23C356.19 182.27 356.97 181.49 357.93 181.49C358.89 181.49 359.67 182.27 359.67 183.23C359.67 184.19 358.89 184.97 357.93 184.97Z" fill="#114A82"/>
<path d="M357.93 210.8C357.02 210.8 356.28 210.06 356.28 209.15C356.28 208.24 357.02 207.5 357.93 207.5C358.84 207.5 359.58 208.24 359.58 209.15C359.58 210.06 358.84 210.8 357.93 210.8Z" fill="#114A82"/>
<path d="M353.19 236.19C352.33 236.19 351.64 235.49 351.64 234.64C351.64 233.78 352.34 233.09 353.19 233.09C354.05 233.09 354.74 233.79 354.74 234.64C354.74 235.49 354.05 236.19 353.19 236.19Z" fill="#114A82"/>
<path d="M343.82 260.27C343.01 260.27 342.36 259.62 342.36 258.81C342.36 258 343.01 257.35 343.82 257.35C344.63 257.35 345.28 258 345.28 258.81C345.28 259.61 344.63 260.27 343.82 260.27Z" fill="#114A82"/>
<path d="M330.16 282.2C329.41 282.2 328.8 281.59 328.8 280.84C328.8 280.09 329.41 279.48 330.16 279.48C330.91 279.48 331.52 280.09 331.52 280.84C331.52 281.59 330.91 282.2 330.16 282.2Z" fill="#114A82"/>
<path d="M312.69 301.26C311.99 301.26 311.42 300.69 311.42 299.99C311.42 299.29 311.99 298.72 312.69 298.72C313.39 298.72 313.96 299.29 313.96 299.99C313.95 300.69 313.39 301.26 312.69 301.26Z" fill="#114A82"/>
<path d="M292.01 316.8C291.36 316.8 290.84 316.27 290.84 315.63C290.84 314.99 291.37 314.46 292.01 314.46C292.66 314.46 293.18 314.99 293.18 315.63C293.18 316.27 292.66 316.8 292.01 316.8Z" fill="#114A82"/>
<path d="M268.81 328.28C268.21 328.28 267.73 327.8 267.73 327.2C267.73 326.6 268.21 326.12 268.81 326.12C269.41 326.12 269.89 326.6 269.89 327.2C269.89 327.8 269.41 328.28 268.81 328.28Z" fill="#114A82"/>
<path d="M243.87 335.27C244.417 335.27 244.86 334.827 244.86 334.28C244.86 333.733 244.417 333.29 243.87 333.29C243.323 333.29 242.88 333.733 242.88 334.28C242.88 334.827 243.323 335.27 243.87 335.27Z" fill="#114A82"/>
<path d="M218.05 337.54C218.541 337.54 218.94 337.142 218.94 336.65C218.94 336.158 218.541 335.76 218.05 335.76C217.558 335.76 217.16 336.158 217.16 336.65C217.16 337.142 217.558 337.54 218.05 337.54Z" fill="#114A82"/>
<path d="M218.05 71.72C219.431 71.72 220.55 70.6007 220.55 69.22C220.55 67.8393 219.431 66.72 218.05 66.72C216.669 66.72 215.55 67.8393 215.55 69.22C215.55 70.6007 216.669 71.72 218.05 71.72Z" fill="#114A82"/>
<path d="M242.83 73.91C241.57 73.91 240.56 72.89 240.56 71.64C240.56 70.38 241.58 69.37 242.83 69.37C244.08 69.37 245.1 70.39 245.1 71.64C245.11 72.89 244.09 73.91 242.83 73.91Z" fill="#114A82"/>
<path d="M266.66 80.9C265.53 80.9 264.61 79.9801 264.61 78.8501C264.61 77.7201 265.53 76.8 266.66 76.8C267.79 76.8 268.71 77.7201 268.71 78.8501C268.71 79.9801 267.79 80.9 266.66 80.9Z" fill="#114A82"/>
<path d="M288.6 92.42C289.605 92.42 290.42 91.6052 290.42 90.6C290.42 89.5949 289.605 88.78 288.6 88.78C287.595 88.78 286.78 89.5949 286.78 90.6C286.78 91.6052 287.595 92.42 288.6 92.42Z" fill="#114A82"/>
<path d="M307.84 108C306.96 108 306.24 107.28 306.24 106.4C306.24 105.52 306.96 104.8 307.84 104.8C308.72 104.8 309.44 105.52 309.44 106.4C309.44 107.28 308.72 108 307.84 108Z" fill="#114A82"/>
<path d="M323.64 127.01C322.88 127.01 322.27 126.4 322.27 125.64C322.27 124.88 322.88 124.27 323.64 124.27C324.4 124.27 325.01 124.88 325.01 125.64C325.01 126.4 324.4 127.01 323.64 127.01Z" fill="#114A82"/>
<path d="M335.39 148.73C334.76 148.73 334.24 148.22 334.24 147.58C334.24 146.95 334.75 146.43 335.39 146.43C336.02 146.43 336.54 146.94 336.54 147.58C336.54 148.22 336.02 148.73 335.39 148.73Z" fill="#114A82"/>
<path d="M342.61 172.33C342.1 172.33 341.69 171.92 341.69 171.41C341.69 170.9 342.1 170.49 342.61 170.49C343.12 170.49 343.53 170.9 343.53 171.41C343.53 171.92 343.12 172.33 342.61 172.33Z" fill="#114A82"/>
<path d="M345.03 196.88C345.411 196.88 345.72 196.571 345.72 196.19C345.72 195.809 345.411 195.5 345.03 195.5C344.649 195.5 344.34 195.809 344.34 196.19C344.34 196.571 344.649 196.88 345.03 196.88Z" fill="#114A82"/>
<path d="M103.92 257.36C46.8399 257.36 0.399902 210.92 0.399902 153.83C0.399902 96.74 46.8399 50.31 103.92 50.31C161 50.31 207.45 96.75 207.45 153.83C207.45 210.91 161.01 257.36 103.92 257.36ZM103.92 52.31C47.9399 52.31 2.3999 97.85 2.3999 153.83C2.3999 209.81 47.9399 255.36 103.92 255.36C159.9 255.36 205.45 209.82 205.45 153.83C205.45 97.85 159.9 52.31 103.92 52.31Z" fill="#0B315E"/>
<path d="M103.92 240.43C56.1698 240.43 17.3298 201.58 17.3298 153.84C17.3298 106.09 56.1798 67.25 103.92 67.25C151.67 67.25 190.51 106.1 190.51 153.84C190.52 201.58 151.67 240.43 103.92 240.43ZM103.92 74.09C59.9498 74.09 24.1798 109.86 24.1798 153.83C24.1798 197.8 59.9498 233.57 103.92 233.57C147.89 233.57 183.66 197.8 183.66 153.83C183.66 109.86 147.89 74.09 103.92 74.09Z" fill="#FF9D00"/>
<path d="M103.92 223.49C65.51 223.49 34.26 192.24 34.26 153.83C34.26 115.42 65.51 84.17 103.92 84.17C142.33 84.17 173.58 115.42 173.58 153.83C173.58 192.24 142.33 223.49 103.92 223.49ZM103.92 86.17C66.61 86.17 36.26 116.52 36.26 153.83C36.26 191.14 66.61 221.49 103.92 221.49C141.23 221.49 171.58 191.14 171.58 153.83C171.58 116.52 141.23 86.17 103.92 86.17Z" fill="#0B315E"/>
<path d="M103.92 206.56C74.85 206.56 51.1899 182.91 51.1899 153.83C51.1899 124.75 74.84 101.1 103.92 101.1C133 101.1 156.65 124.75 156.65 153.83C156.65 182.91 133 206.56 103.92 206.56ZM103.92 103.11C75.95 103.11 53.1899 125.87 53.1899 153.84C53.1899 181.81 75.95 204.57 103.92 204.57C131.89 204.57 154.65 181.81 154.65 153.84C154.65 125.87 131.9 103.11 103.92 103.11Z" fill="#0B315E"/>
<path d="M103.92 189.63C84.1799 189.63 68.1299 173.57 68.1299 153.83C68.1299 134.09 84.1899 118.04 103.92 118.04C123.66 118.04 139.72 134.1 139.72 153.83C139.72 173.57 123.66 189.63 103.92 189.63ZM103.92 120.04C85.2899 120.04 70.1299 135.2 70.1299 153.83C70.1299 172.46 85.2899 187.63 103.92 187.63C122.55 187.63 137.72 172.47 137.72 153.83C137.72 135.19 122.56 120.04 103.92 120.04Z" fill="#0B315E"/>
<path d="M103.92 172.7C93.5198 172.7 85.0598 164.24 85.0598 153.84C85.0598 143.44 93.5198 134.98 103.92 134.98C114.32 134.98 122.78 143.44 122.78 153.84C122.79 164.23 114.32 172.7 103.92 172.7ZM103.92 136.97C94.6198 136.97 87.0598 144.53 87.0598 153.83C87.0598 163.13 94.6198 170.69 103.92 170.69C113.22 170.69 120.78 163.13 120.78 153.83C120.79 144.54 113.22 136.97 103.92 136.97Z" fill="#0B315E"/>
<path d="M243.02 346.76C313.353 346.76 370.37 289.743 370.37 219.41C370.37 149.077 313.353 92.06 243.02 92.06C172.686 92.06 115.67 149.077 115.67 219.41C115.67 289.743 172.686 346.76 243.02 346.76Z" fill="url(#paint1_radial_7_171)"/>
<path d="M215.15 315.19C280.872 315.19 334.15 261.912 334.15 196.19C334.15 130.468 280.872 77.19 215.15 77.19C149.428 77.19 96.1499 130.468 96.1499 196.19C96.1499 261.912 149.428 315.19 215.15 315.19Z" fill="#0B315E"/>
<path d="M201.44 252.84L208.43 245.85L206.37 243.79L197.33 252.84L206.37 261.89L208.43 259.83L201.44 252.84Z" fill="white"/>
<path d="M213.64 252.84L220.63 245.85L218.57 243.79L209.52 252.84L218.57 261.89L220.63 259.83L213.64 252.84Z" fill="white"/>
<path d="M225.99 252.84L232.98 245.85L230.92 243.79L221.87 252.84L230.92 261.89L232.98 259.83L225.99 252.84Z" fill="white"/>
<path d="M228.86 151.05L221.87 158.04L223.93 160.09L232.98 151.05L223.93 142L221.87 144.06L228.86 151.05Z" fill="white"/>
<path d="M216.66 151.05L209.67 158.04L211.73 160.09L220.78 151.05L211.73 142L209.67 144.06L216.66 151.05Z" fill="white"/>
<path d="M204.32 151.05L197.33 158.04L199.38 160.09L208.43 151.05L199.38 142L197.33 144.06L204.32 151.05Z" fill="white"/>
<path d="M411.822 292.608C435.585 268.845 435.585 230.317 411.822 206.554C388.059 182.791 349.531 182.791 325.768 206.554C302.005 230.317 302.005 268.845 325.768 292.608C349.531 316.371 388.059 316.372 411.822 292.608Z" fill="#FF9D00"/>
<path d="M378.09 271.695C390.294 266.552 396.019 252.49 390.876 240.286C385.734 228.082 371.672 222.357 359.467 227.5C347.263 232.642 341.539 246.705 346.681 258.909C351.824 271.113 365.886 276.838 378.09 271.695Z" fill="#0B315E"/>
<defs>
<radialGradient id="paint0_radial_7_171" cx="0" cy="0" r="1" gradientUnits="userSpaceOnUse" gradientTransform="translate(260.939 221.403) scale(200.05)">
<stop/>
<stop offset="1" stop-color="white"/>
</radialGradient>
<radialGradient id="paint1_radial_7_171" cx="0" cy="0" r="1" gradientUnits="userSpaceOnUse" gradientTransform="translate(243.022 219.413) scale(127.353)">
<stop/>
<stop offset="1" stop-color="white"/>
</radialGradient>
</defs>
</svg>
